HIERARCHY
ROOT Hips
{
	OFFSET 0.000000 0.000000 0.000000
	CHANNELS 6 Xposition Yposition Zposition Zrotation Yrotation Xrotation
	JOINT LHipJoint
	{
		OFFSET 0.000000 0.000000 0.000000
		CHANNELS 3 Zrotation Yrotation Xrotation
		JOINT LeftUpLeg
		{
			OFFSET 1.363060 -1.794630 0.839290
			CHANNELS 3 Zrotation Yrotation Xrotation
			JOINT LeftLeg
			{
				OFFSET 2.448110 -6.726130 0.000000
				CHANNELS 3 Zrotation Yrotation Xrotation
				JOINT LeftFoot
				{
					OFFSET 2.562200 -7.039590 0.000000
					CHANNELS 3 Zrotation Yrotation Xrotation
					JOINT LeftToeBase
					{
						OFFSET 0.157640 -0.433110 2.322550
						CHANNELS 3 Zrotation Yrotation Xrotation
						End Site
						{
							OFFSET 0.000000 0.000000 0.000000
						}
					}
				}
			}
		}
	}
	JOINT RHipJoint
	{
		OFFSET 0.000000 0.000000 0.000000
		CHANNELS 3 Zrotation Yrotation Xrotation
		JOINT RightUpLeg
		{
			OFFSET -1.305520 -1.794630 0.839290
			CHANNELS 3 Zrotation Yrotation Xrotation
			JOINT RightLeg
			{
				OFFSET -2.542530 -6.985550 0.000000
				CHANNELS 3 Zrotation Yrotation Xrotation
				JOINT RightFoot
				{
					OFFSET -2.568260 -7.056230 0.000000
					CHANNELS 3 Zrotation Yrotation Xrotation
					JOINT RightToeBase
					{
						OFFSET -0.164730 -0.452590 2.363150
						CHANNELS 3 Zrotation Yrotation Xrotation
						End Site
						{
							OFFSET 0.000000 0.000000 0.000000
						}
					}
				}
			}
		}
	}
	JOINT LowerBack
	{
		OFFSET 0.000000 0.000000 0.000000
		CHANNELS 3 Zrotation Yrotation Xrotation
		JOINT Spine
		{
			OFFSET 0.028270 2.035590 -0.193380
			CHANNELS 3 Zrotation Yrotation Xrotation
			JOINT Spine1
			{
				OFFSET 0.056720 2.048850 -0.042750
				CHANNELS 3 Zrotation Yrotation Xrotation
				JOINT Neck
				{
					OFFSET 0.000000 0.000000 0.000000
					CHANNELS 3 Zrotation Yrotation Xrotation
					JOINT Neck1
					{
						OFFSET -0.054170 1.746240 0.172020
						CHANNELS 3 Zrotation Yrotation Xrotation
						JOINT Head
						{
							OFFSET 0.104070 1.761360 -0.123970
							CHANNELS 3 Zrotation Yrotation Xrotation
							End Site
							{
								OFFSET 0.000000 0.000000 0.000000
							}
						}
					}
				}
				JOINT LeftShoulder
				{
					OFFSET 0.000000 0.000000 0.000000
					CHANNELS 3 Zrotation Yrotation Xrotation
					JOINT LeftArm
					{
						OFFSET 3.362410 1.200890 -0.311210
						CHANNELS 3 Zrotation Yrotation Xrotation
						JOINT LeftForeArm
						{
							OFFSET 4.983000 -0.000000 -0.000000
							CHANNELS 3 Zrotation Yrotation Xrotation
							JOINT LeftHand
							{
								OFFSET 3.483560 -0.000000 -0.000000
								CHANNELS 3 Zrotation Yrotation Xrotation
								JOINT LeftFingerBase
								{
									OFFSET 0.000000 0.000000 0.000000
									CHANNELS 3 Zrotation Yrotation Xrotation
									JOINT LeftHandIndex1
									{
										OFFSET 0.715260 -0.000000 -0.000000
										CHANNELS 3 Zrotation Yrotation Xrotation
										End Site
										{
											OFFSET 0.000000 0.000000 0.000000
										}
									}
								}
								JOINT LThumb
								{
									OFFSET 0.000000 0.000000 0.000000
									CHANNELS 3 Zrotation Yrotation Xrotation
									End Site
									{
										OFFSET 0.000000 0.000000 0.000000
									}
								}
							}
						}
					}
				}
				JOINT RightShoulder
				{
					OFFSET 0.000000 0.000000 0.000000
					CHANNELS 3 Zrotation Yrotation Xrotation
					JOINT RightArm
					{
						OFFSET -3.136600 1.374050 -0.404650
						CHANNELS 3 Zrotation Yrotation Xrotation
						JOINT RightForeArm
						{
							OFFSET -5.241900 -0.000000 -0.000000
							CHANNELS 3 Zrotation Yrotation Xrotation
							JOINT RightHand
							{
								OFFSET -3.444170 -0.000000 -0.000000
								CHANNELS 3 Zrotation Yrotation Xrotation
								JOINT RightFingerBase
								{
									OFFSET 0.000000 0.000000 0.000000
									CHANNELS 3 Zrotation Yrotation Xrotation
									JOINT RightHandIndex1
									{
										OFFSET -0.622530 -0.000000 -0.000000
										CHANNELS 3 Zrotation Yrotation Xrotation
										End Site
										{
											OFFSET 0.000000 0.000000 0.000000
										}
									}
								}
								JOINT RThumb
								{
									OFFSET 0.000000 0.000000 0.000000
									CHANNELS 3 Zrotation Yrotation Xrotation
									End Site
									{
										OFFSET 0.000000 0.000000 0.000000
									}
								}
							}
						}
					}
				}
			}
		}
	}
}
MOTION
Frames: 10
Frame Time: 0.008333
0.007078 -0.000714 0.061949 -0.050731 -0.454725 -0.015270 -0.017944 -0.000156 -0.010140 0.193265 0.085673 0.144184 -0.068956 -0.156707 -0.472683 -0.136524 0.588322 0.101805 0.002177 -0.044748 -0.123040 0.009455 -0.003845 -0.004661 -0.105401 -0.052430 0.459057 0.038219 0.135844 -0.363733 -0.053190 0.288297 0.164714 0.008194 0.050765 -0.141797 0.077280 0.134813 0.001860 -0.014981 0.181366 0.038500 -0.077359 0.089825 0.102584 -0.029008 -0.003312 -0.077975 0.018137 0.002949 0.006667 0.015620 0.001472 0.017413 -0.012451 0.008770 0.013821 -0.016304 0.006085 -0.561692 -0.097044 0.145527 -0.024698 0.011890 0.279550 0.104321 -0.440818 -2.841172 -0.907501 0.000000 0.000000 0.000000 0.586777 -3.174526 1.004551 0.003789 -0.004952 0.002004 0.015167 0.124815 0.199080 0.006879 -0.011757 0.007436 0.029668 -0.048345 -0.372007 -0.286989 0.545293 -0.199156 -0.000000 0.000000 0.000000 -0.252226 0.616545 -0.020805
0.001828 0.005349 -1.243943 0.161425 -0.511196 -0.153187 -0.249596 -0.128000 -0.097086 -0.273338 -0.712196 2.274820 -0.645045 -0.765235 -3.514049 0.066434 -0.300424 -1.117655 0.073760 -2.486241 0.182931 0.027544 -0.127360 -0.346984 -1.152907 -0.819806 0.416721 -0.073429 0.378513 -0.460756 -0.104154 0.299338 -0.008277 0.127463 -0.012220 -0.375083 -0.187038 0.167676 -0.203726 -0.060089 0.162240 -0.076013 -0.177041 0.092537 0.002028 -0.189639 -0.094151 -0.292510 -0.083692 -0.132908 -0.096736 0.024544 0.042829 0.013845 -0.060628 0.000654 0.001973 -0.456608 -0.034296 -0.853808 -0.314232 -0.129945 -0.051040 -0.055878 0.229529 -0.095823 -0.444234 -2.595983 -1.042674 -0.070821 0.000000 0.000000 -0.265251 -3.890408 0.289520 -0.256477 -0.082397 -0.026841 -0.516780 0.457013 0.332026 -0.533998 -0.374855 -0.615947 -0.043273 -0.089866 -0.731006 -3.072877 -0.612097 -2.055559 -0.021788 0.000000 0.000000 -2.276359 -1.106916 0.902215
0.025806 0.061281 -1.015800 0.100588 -0.408227 -0.050776 -0.267346 -0.133376 -0.057713 -0.192066 -1.054348 2.668413 -1.178941 -0.688878 -4.874322 0.087833 -0.137043 -1.188651 0.250881 -2.150249 2.729114 0.507355 -0.066656 -0.477770 -1.469271 -1.022678 1.507660 -0.108027 0.481925 -0.646621 -0.092415 0.827007 0.620876 0.203596 -0.284526 -0.050747 -0.183516 0.249935 -0.319392 -0.069866 0.236959 -0.025054 -0.180553 0.167937 0.184019 -0.148150 -0.029387 -0.075551 -0.028743 -0.086738 0.074100 0.015096 0.083180 0.097266 0.027736 0.127569 0.021740 0.020867 0.222389 -0.050798 -0.210884 0.105353 0.040583 -0.107517 0.218945 0.510249 0.051778 -2.322562 -1.090888 -0.079239 0.000000 0.000000 0.366543 -2.704432 1.433221 -0.316494 -0.035433 0.001041 -0.358979 1.129727 0.962015 -0.314648 -0.095453 -0.357463 -0.013802 -0.062978 -0.543824 -2.421318 -0.206293 -1.083696 0.021340 0.000000 0.000000 -1.519484 -0.927324 5.814412
0.208966 0.159639 -0.391445 0.086013 -0.361564 -0.135267 -0.361185 -0.100891 -0.019347 -0.161820 -1.480803 1.797886 -1.789498 -0.962754 -6.714351 -0.081451 0.191274 -0.432576 0.471701 -1.412073 4.216908 0.835775 -0.034854 -0.622648 -1.977329 -1.286729 2.545187 -0.121940 0.588439 -0.698847 -0.056194 0.688516 0.753738 0.206053 -0.651756 1.089606 -0.085031 0.326431 -0.394299 -0.060644 0.312663 -0.036573 -0.227941 0.219637 0.288581 -0.182663 -0.026508 -0.007289 -0.038995 -0.155167 0.092182 -0.059965 0.074767 0.078806 0.018032 0.167183 0.022921 0.115527 0.332468 0.160572 -0.235313 0.240155 0.112143 -0.153595 0.202153 0.937726 0.461672 -2.226342 -1.217777 -0.093210 0.000000 0.000000 0.996180 -1.482808 2.670177 -0.377091 0.009430 0.039126 -0.173312 1.724076 1.590929 -0.072890 0.161571 -0.118207 0.016856 -0.038710 -0.398758 -1.798669 0.128862 -0.152553 0.056139 0.000000 0.000000 -1.780723 -1.201097 8.906129
0.230629 0.225106 -0.186495 0.106030 -0.634781 -0.371907 -0.489462 -0.138775 0.043588 0.105289 -0.969939 1.217403 -1.828429 -0.357717 -5.688607 -0.136479 1.006321 -0.138778 0.101289 -0.805481 3.991164 0.518443 0.057449 -0.531876 -2.647735 -1.537568 3.868612 -0.089650 0.671042 -0.553720 -0.041601 0.791297 1.305470 0.177779 -1.190584 2.379515 0.136959 0.359751 -0.448898 -0.056775 0.352664 -0.061603 -0.291000 0.249310 0.269658 -0.170547 -0.002682 -0.047475 -0.061453 -0.198256 0.169725 -0.058186 0.085634 0.031713 -0.041107 0.178198 0.024234 0.288698 0.424720 -0.246611 -0.378666 0.338931 0.170584 -0.197777 0.174958 1.022391 0.687783 -2.442818 -1.536811 -0.126791 0.000000 0.000000 0.890920 -1.487309 2.887465 -0.512376 0.010162 0.048908 -0.545158 2.165846 2.062679 -0.043049 0.286915 -0.117608 0.017640 -0.025781 -0.321166 -1.398261 0.007342 0.134553 0.068832 0.000000 0.000000 -2.991613 -1.759597 10.039383
0.368290 0.335934 0.615935 -0.153453 -0.866888 -0.418653 -0.447805 -0.147059 0.175363 0.371280 -0.180434 0.224022 -1.871803 0.300617 -4.404377 0.005001 2.336728 1.547968 -0.321748 -0.662027 2.983906 -0.603099 0.166421 -0.237492 -3.776520 -1.930405 4.841502 0.141426 0.838021 -0.703215 -0.108384 0.941663 1.989416 0.214123 -1.555829 2.479524 0.318272 0.351482 -0.549491 -0.103071 0.325291 -0.186092 -0.429341 0.256165 0.226727 -0.149703 0.020581 -0.056909 -0.044823 -0.181472 0.331715 -0.029940 0.108159 0.021195 -0.065517 0.218251 0.036816 0.753407 0.633816 -0.218054 -0.393740 0.592981 0.264461 -0.237135 0.155050 1.234062 0.962949 -2.344608 -1.753684 -0.137723 0.000000 0.000000 1.359324 -0.820046 3.712356 -0.519415 0.072007 0.058322 -0.914214 2.624087 2.399587 -0.141828 0.345214 -0.158859 0.017644 -0.015381 -0.269622 -0.925091 -0.207762 0.339983 0.072550 0.000000 0.000000 -4.510353 -2.370030 10.360759
0.596073 0.275049 0.956092 -0.064236 -0.982584 -0.584307 -0.606877 -0.228512 0.258838 0.451948 -0.149589 -0.138634 -2.309133 -0.228673 -6.450994 -0.266975 1.691751 1.342557 -0.857946 -1.772406 1.400968 -1.639933 0.208329 0.014463 -4.910551 -2.555779 5.486082 0.213682 1.194026 -1.173854 -0.183248 0.625220 1.917307 0.293948 -1.743412 3.164146 0.398496 0.403537 -0.608095 -0.131507 0.333576 -0.266352 -0.541309 0.269539 0.204901 -0.188020 -0.003241 -0.087918 -0.084038 -0.263973 0.373140 -0.067781 0.100446 -0.030273 -0.152552 0.179148 0.031137 0.766830 0.684835 -0.819698 -0.458367 0.792302 0.340813 -0.276184 0.116051 1.082190 0.954847 -2.203580 -1.985076 -0.181894 0.000000 0.000000 0.892753 -1.379277 3.370756 -0.643630 0.035696 0.039041 -1.699088 2.857112 2.491525 -0.456422 0.193835 -0.394342 -0.002368 -0.037642 -0.431723 -1.815700 -0.931909 -0.417311 0.044547 0.000000 0.000000 -7.263673 -3.820963 8.369810
0.740439 0.156375 1.133802 0.102456 -0.976154 -0.692326 -0.794078 -0.374896 0.334431 0.597297 -0.150288 0.961281 -2.535435 -0.252636 -7.010021 -0.236962 2.196933 3.220464 -0.982036 -1.882805 2.933983 -2.002092 0.411306 0.232884 -5.592489 -3.142301 6.184961 0.224718 1.392851 -1.685506 -0.244181 0.671685 2.071442 0.378560 -1.909099 3.774187 0.543989 0.472475 -0.688523 -0.164967 0.362627 -0.291975 -0.617713 0.307021 0.290856 -0.139417 0.031899 -0.005624 -0.079294 -0.297481 0.490169 -0.061552 0.119840 -0.025494 -0.186128 0.190020 0.039140 1.121760 0.855005 -1.154694 -0.422383 1.127593 0.447865 -0.308396 0.088695 1.150221 1.052776 -1.759672 -2.058957 -0.198710 0.000000 0.000000 0.947369 -1.254501 3.685760 -0.668508 0.069111 0.045255 -2.101066 3.231385 2.825420 -0.415865 0.365680 -0.399826 0.004918 -0.032631 -0.313980 -1.079609 -0.897654 0.234261 0.053449 0.000000 0.000000 -8.149173 -4.276558 8.600301
0.910643 -0.016562 1.149381 0.229799 -0.811243 -0.566458 -0.844420 -0.490697 0.392065 1.023661 -0.360025 1.430600 -2.915078 -0.748806 -8.692657 -0.320430 2.245691 3.746340 -1.069600 -2.169122 3.110068 -1.997427 0.608297 0.432549 -5.711911 -3.424085 7.199536 0.264050 1.557141 -1.997818 -0.274055 0.951593 2.540650 0.417403 -2.061081 4.106899 0.697475 0.529240 -0.769975 -0.210466 0.416637 -0.342446 -0.705462 0.335703 0.381512 -0.107024 0.049325 0.056649 -0.086988 -0.388452 0.535903 -0.088521 0.130956 -0.036788 -0.247510 0.180337 0.041713 1.372504 0.977325 -1.700978 -0.426500 1.390886 0.535078 -0.343559 0.044369 1.081397 1.046574 -1.678036 -2.236864 -0.226430 0.000000 0.000000 0.663130 -1.460765 3.674246 -0.776466 0.036932 0.035193 -2.718812 3.486602 3.000832 -0.416188 0.475726 -0.481689 -0.004283 -0.047775 -0.340503 -1.680936 -1.281631 0.023316 0.036962 0.000000 0.000000 -10.114390 -5.254944 8.220926
1.059525 -0.147073 1.332212 0.323840 -0.633130 -0.466622 -0.960141 -0.586579 0.430295 1.498453 -0.748196 1.252699 -3.386314 -1.382422 -10.626524 -0.438031 2.138986 3.962128 -1.049739 -2.142814 3.387461 -1.916424 0.676068 0.498524 -5.796633 -3.744590 8.208830 0.282442 1.763296 -2.146825 -0.247180 0.969668 3.034687 0.461675 -2.187312 5.005939 0.941726 0.622597 -0.723862 -0.210147 0.539829 -0.293638 -0.729816 0.391703 0.573709 -0.017460 0.104039 0.183364 -0.073301 -0.441906 0.636965 -0.084999 0.166311 -0.021280 -0.294036 0.208922 0.051903 1.747347 1.151004 -2.216652 -0.387290 1.724575 0.638965 -0.364834 0.018451 1.279364 1.162080 -1.490378 -2.326602 -0.234756 0.000000 0.000000 0.778069 -1.122166 4.149079 -0.797036 0.070913 0.053863 -2.880940 3.950331 3.493462 -0.085911 0.901267 -0.383975 0.006365 -0.034894 -0.083089 -0.774029 -0.781296 1.344058 0.059755 0.000000 0.000000 -10.169937 -5.140269 9.486449
